<?xml version="1.0" encoding="UTF-8"?>
<svg width="32" height="32" viewBox="0 0 32 32" xmlns="http://www.w3.org/2000/svg">
    <style>
        .silhouette {
            fill: #FFFFFF;
        }
    </style>
    <path class="silhouette" d="M16,2 C8.268,2 2,8.268 2,16 C2,23.732 8.268,30 16,30 C23.732,30 30,23.732 30,16 C30,8.268 23.732,2 16,2 Z M16,4 C22.627,4 28,9.373 28,16 C28,22.627 22.627,28 16,28 C9.373,28 4,22.627 4,16 C4,9.373 9.373,4 16,4 Z M16,6 C10.477,6 6,10.477 6,16 C6,21.523 10.477,26 16,26 C21.523,26 26,21.523 26,16 C26,10.477 21.523,6 16,6 Z M16,8 C20.418,8 24,11.582 24,16 C24,20.418 20.418,24 16,24 C11.582,24 8,20.418 8,16 C8,11.582 11.582,8 16,8 Z M16,10 C12.686,10 10,12.686 10,16 C10,19.314 12.686,22 16,22 C19.314,22 22,19.314 22,16 C22,12.686 19.314,10 16,10 Z M16,12 C18.209,12 20,13.791 20,16 C20,18.209 18.209,20 16,20 C13.791,20 12,18.209 12,16 C12,13.791 13.791,12 16,12 Z M16,14 C14.895,14 14,14.895 14,16 C14,17.105 14.895,18 16,18 C17.105,18 18,17.105 18,16 C18,14.895 17.105,14 16,14 Z"/>
</svg> 